<svg width="21" height="21" viewBox="0 0 21 21" fill="none" xmlns="http://www.w3.org/2000/svg">
<path d="M10.4399 5.49758C9.52838 5.49758 8.6373 5.76789 7.87938 6.27431C7.12146 6.78074 6.53074 7.50054 6.18191 8.3427C5.83307 9.18485 5.7418 10.1115 5.91964 11.0056C6.09747 11.8996 6.53642 12.7208 7.18098 13.3654C7.82553 14.0099 8.64675 14.4489 9.54078 14.6267C10.4348 14.8045 11.3615 14.7133 12.2036 14.3644C13.0458 14.0156 13.7656 13.4249 14.272 12.667C14.7785 11.909 15.0488 11.018 15.0488 10.1064C15.0475 8.88447 14.5615 7.71293 13.6975 6.84888C12.8334 5.98484 11.6619 5.49885 10.4399 5.49758ZM10.4399 13.179C9.83222 13.179 9.23818 12.9988 8.7329 12.6612C8.22762 12.3235 7.8338 11.8437 7.60124 11.2822C7.36869 10.7208 7.30784 10.103 7.4264 9.507C7.54495 8.91098 7.83759 8.3635 8.26729 7.93379C8.697 7.50409 9.24447 7.21146 9.84049 7.0929C10.4365 6.97435 11.0543 7.03519 11.6157 7.26775C12.1772 7.5003 12.657 7.89412 12.9947 8.3994C13.3323 8.90468 13.5125 9.49873 13.5125 10.1064C13.5125 10.9213 13.1888 11.7028 12.6125 12.279C12.0363 12.8553 11.2548 13.179 10.4399 13.179ZM15.0488 0.120605H5.83108C4.40548 0.12213 3.03871 0.689122 2.03067 1.69717C1.02262 2.70522 0.455627 4.07199 0.454102 5.49758V14.7153C0.455627 16.1409 1.02262 17.5076 2.03067 18.5157C3.03871 19.5237 4.40548 20.0907 5.83108 20.0922H15.0488C16.4744 20.0907 17.8411 19.5237 18.8492 18.5157C19.8572 17.5076 20.4242 16.1409 20.4257 14.7153V5.49758C20.4242 4.07199 19.8572 2.70522 18.8492 1.69717C17.8411 0.689122 16.4744 0.12213 15.0488 0.120605ZM18.8895 14.7153C18.8895 15.7339 18.4848 16.7108 17.7645 17.431C17.0443 18.1513 16.0674 18.556 15.0488 18.556H5.83108C4.81246 18.556 3.83557 18.1513 3.1153 17.431C2.39502 16.7108 1.99038 15.7339 1.99038 14.7153V5.49758C1.99038 4.47897 2.39502 3.50207 3.1153 2.7818C3.83557 2.06153 4.81246 1.65688 5.83108 1.65688H15.0488C16.0674 1.65688 17.0443 2.06153 17.7645 2.7818C18.4848 3.50207 18.8895 4.47897 18.8895 5.49758V14.7153ZM16.585 5.11351C16.585 5.3414 16.5175 5.56417 16.3909 5.75365C16.2642 5.94313 16.0843 6.09081 15.8738 6.17802C15.6632 6.26522 15.4315 6.28804 15.208 6.24358C14.9845 6.19913 14.7792 6.08939 14.6181 5.92825C14.457 5.76711 14.3472 5.56181 14.3028 5.3383C14.2583 5.11479 14.2811 4.88312 14.3683 4.67258C14.4555 4.46204 14.6032 4.28209 14.7927 4.15549C14.9822 4.02888 15.2049 3.9613 15.4328 3.9613C15.7384 3.9613 16.0315 4.0827 16.2476 4.29878C16.4636 4.51486 16.585 4.80793 16.585 5.11351Z" fill="#F0FDFF"/>
</svg>
