<svg width="22" height="22" viewBox="0 0 22 22" fill="none" xmlns="http://www.w3.org/2000/svg">
<path d="M5.74714 7.56972C6.4796 7.56972 7.07338 6.97594 7.07338 6.24348C7.07338 5.51101 6.4796 4.91724 5.74714 4.91724C5.01467 4.91724 4.4209 5.51101 4.4209 6.24348C4.4209 6.97594 5.01467 7.56972 5.74714 7.56972Z" fill="#F0FDFF"/>
<path d="M4.4209 9.33802C4.4209 8.84971 4.81675 8.45386 5.30506 8.45386H6.18922C6.67752 8.45386 7.07338 8.8497 7.07338 9.33802V16.4113C7.07338 16.8996 6.67752 17.2955 6.18922 17.2955H5.30506C4.81675 17.2955 4.4209 16.8996 4.4209 16.4113V9.33802Z" fill="#F0FDFF"/>
<path d="M9.72596 17.2955H10.6101C11.0984 17.2955 11.4943 16.8996 11.4943 16.4113V12.4326C11.4943 11.1063 14.1468 10.2222 14.1468 11.9905V16.4117C14.1468 16.9 14.5426 17.2955 15.0309 17.2955H15.9151C16.4034 17.2955 16.7992 16.8996 16.7992 16.4113V11.1063C16.7992 9.33802 15.473 8.45386 13.7047 8.45386C11.9364 8.45386 11.4943 9.7801 11.4943 9.7801V9.33802C11.4943 8.8497 11.0984 8.45386 10.6101 8.45386H9.72596C9.23764 8.45386 8.8418 8.84971 8.8418 9.33802V16.4113C8.8418 16.8996 9.23764 17.2955 9.72596 17.2955Z" fill="#F0FDFF"/>
<path fill-rule="evenodd" clipRule="evenodd" d="M17.6833 1.38062C19.1483 1.38062 20.3358 2.56818 20.3358 4.0331V18.1797C20.3358 19.6446 19.1483 20.8322 17.6833 20.8322H3.53676C2.07184 20.8322 0.884277 19.6446 0.884277 18.1797V4.0331C0.884277 2.56818 2.07184 1.38062 3.53676 1.38062H17.6833ZM17.6833 3.14894C18.1717 3.14894 18.5675 3.54479 18.5675 4.0331V18.1797C18.5675 18.668 18.1717 19.0638 17.6833 19.0638H3.53676C3.04846 19.0638 2.6526 18.668 2.6526 18.1797V4.0331C2.6526 3.54479 3.04846 3.14894 3.53676 3.14894H17.6833Z" fill="#F0FDFF"/>
</svg>
