<svg width="21" height="15" viewBox="0 0 21 15" fill="none" xmlns="http://www.w3.org/2000/svg">
<path d="M18.375 0H2.625C1.92881 0 1.26113 0.274842 0.768843 0.764067C0.27656 1.25329 0 1.91683 0 2.6087V12.3913C0 13.0832 0.27656 13.7467 0.768843 14.2359C1.26113 14.7252 1.92881 15 2.625 15H18.375C19.0712 15 19.7389 14.7252 20.2312 14.2359C20.7234 13.7467 21 13.0832 21 12.3913V2.6087C21 1.91683 20.7234 1.25329 20.2312 0.764067C19.7389 0.274842 19.0712 0 18.375 0ZM6.36562 9.59347L3.74062 12.2022C3.61261 12.2898 3.45744 12.3295 3.30275 12.3141C3.14806 12.2987 3.00389 12.2292 2.89595 12.118C2.788 12.0068 2.72329 11.8611 2.71333 11.7069C2.70337 11.5528 2.74881 11.4001 2.84156 11.2761L5.46656 8.6674C5.58952 8.54593 5.75585 8.47774 5.92922 8.47774C6.10259 8.47774 6.26892 8.54593 6.39188 8.6674C6.4517 8.72973 6.4985 8.80321 6.52959 8.88362C6.56067 8.96403 6.57541 9.04976 6.57297 9.13587C6.57053 9.22197 6.55096 9.30675 6.51537 9.38529C6.47978 9.46383 6.42888 9.53459 6.36562 9.59347V9.59347ZM10.5 10.4348C10.3467 10.4351 10.1981 10.382 10.08 10.2848L2.86125 4.41521C2.78869 4.36293 2.72768 4.29643 2.68197 4.21982C2.63626 4.14322 2.60683 4.05811 2.59548 3.96977C2.58413 3.88142 2.59113 3.7917 2.61601 3.70613C2.64089 3.62057 2.68314 3.54099 2.74016 3.47228C2.79718 3.40356 2.86775 3.34719 2.94754 3.30663C3.02732 3.26606 3.11462 3.24216 3.20406 3.23641C3.29349 3.23066 3.38316 3.24316 3.46754 3.27317C3.55192 3.30318 3.62923 3.35004 3.69469 3.41088L10.5 8.9413L17.2791 3.41088C17.3458 3.35634 17.4227 3.31542 17.5054 3.29049C17.588 3.26555 17.6748 3.25706 17.7608 3.26555C17.8468 3.27403 17.9302 3.2993 18.0063 3.3399C18.0824 3.38051 18.1498 3.43566 18.2044 3.50217C18.3132 3.6357 18.3645 3.80651 18.3473 3.97747C18.3301 4.14843 18.2458 4.30573 18.1125 4.41521L10.8938 10.2848C10.7827 10.3765 10.6443 10.4292 10.5 10.4348V10.4348ZM18.1781 12.2022C18.0552 12.3236 17.8888 12.3918 17.7155 12.3918C17.5421 12.3918 17.3758 12.3236 17.2528 12.2022L14.6278 9.59347C14.5663 9.53284 14.5175 9.46072 14.4842 9.38125C14.4508 9.30178 14.4337 9.21653 14.4337 9.13044C14.4337 9.04434 14.4508 8.95909 14.4842 8.87962C14.5175 8.80015 14.5663 8.72803 14.6278 8.6674C14.7508 8.54593 14.9171 8.47774 15.0905 8.47774C15.2638 8.47774 15.4302 8.54593 15.5531 8.6674L18.1781 11.2761C18.2396 11.3367 18.2885 11.4088 18.3218 11.4883C18.3551 11.5678 18.3722 11.653 18.3722 11.7391C18.3722 11.8252 18.3551 11.9105 18.3218 11.9899C18.2885 12.0694 18.2396 12.1415 18.1781 12.2022V12.2022Z" fill="#E4F7FF"/>
</svg>
