<svg width="18" height="18" viewBox="0 0 18 18" fill="none" xmlns="http://www.w3.org/2000/svg">
<path d="M14.8785 11.3687C14.75 11.22 14.591 11.1007 14.4122 11.019C14.2335 10.9373 14.0393 10.895 13.8428 10.895C13.6462 10.895 13.452 10.9373 13.2733 11.019C13.0946 11.1007 12.9355 11.22 12.807 11.3687C12.3231 11.8467 11.8391 12.3306 11.3611 12.8205C11.3161 12.8816 11.2493 12.9231 11.1746 12.9363C11.0999 12.9495 11.0229 12.9334 10.9598 12.8913C10.647 12.7202 10.3106 12.5844 10.0096 12.3956C8.62835 11.5004 7.40407 10.3838 6.38588 9.09059C5.85427 8.46385 5.41505 7.76428 5.08158 7.01315C5.04531 6.95087 5.0331 6.87747 5.04723 6.8068C5.06136 6.73613 5.10087 6.67308 5.1583 6.62954C5.64225 6.15739 6.11439 5.67936 6.59243 5.19541C6.74844 5.06581 6.874 4.90344 6.96017 4.71983C7.04634 4.53623 7.09102 4.33592 7.09102 4.1331C7.09102 3.93028 7.04634 3.72994 6.96017 3.54634C6.874 3.36274 6.74844 3.20036 6.59243 3.07077L5.45339 1.93173C5.06387 1.54221 4.67436 1.14679 4.27304 0.751374C4.14344 0.604424 3.98406 0.486739 3.80548 0.406125C3.6269 0.325511 3.4332 0.283813 3.23727 0.283813C3.04134 0.283813 2.84765 0.325511 2.66907 0.406125C2.49049 0.486739 2.3311 0.604424 2.20151 0.751374C1.71166 1.22942 1.24542 1.72516 0.743767 2.1973C0.302113 2.61384 0.037919 3.18453 0.00605446 3.79078C-0.0359877 4.78506 0.141328 5.77641 0.525414 6.69447C1.26153 8.60293 2.32171 10.3699 3.65925 11.9175C5.4197 14.0315 7.61079 15.7458 10.0863 16.9458C11.1863 17.5219 12.3901 17.873 13.6274 17.9787C14.0418 18.0252 14.4614 17.9725 14.8514 17.8247C15.2414 17.6769 15.5905 17.4383 15.87 17.1288C16.2831 16.6626 16.7494 16.2376 17.192 15.795C17.3451 15.6648 17.468 15.5029 17.5523 15.3205C17.6366 15.1381 17.6803 14.9395 17.6803 14.7386C17.6803 14.5376 17.6366 14.3391 17.5523 14.1567C17.468 13.9743 17.3451 13.8124 17.192 13.6822C16.4287 12.911 15.6576 12.1398 14.8785 11.3687Z" fill="#E4F7FF"/>
<path d="M17.9415 7.99876C16.4049 4.40921 13.5362 1.55535 9.93874 0.0372731C9.79386 -0.016811 9.63353 -0.011878 9.49225 0.0510334C9.35098 0.113945 9.24005 0.229794 9.18331 0.373661C9.1524 0.445652 9.13614 0.52308 9.13546 0.601425C9.13478 0.67977 9.1497 0.757468 9.17937 0.829982C9.20903 0.902496 9.25284 0.968371 9.30824 1.02378C9.36363 1.07919 9.42951 1.12302 9.50201 1.1527C12.8181 2.55368 15.4623 5.18518 16.8792 8.49451C16.9426 8.63485 17.0583 8.74487 17.2016 8.80111C17.3449 8.85734 17.5046 8.85533 17.6465 8.7955C17.7191 8.76371 17.7846 8.71759 17.839 8.65992C17.8935 8.60224 17.9357 8.53419 17.9633 8.45982C17.9908 8.38545 18.0031 8.3063 17.9993 8.22708C17.9956 8.14787 17.976 8.07021 17.9415 7.99876Z" fill="#E4F7FF"/>
<path d="M9.19509 4.35738C11.2052 5.20404 12.8087 6.797 13.6686 8.80142C13.7143 8.90029 13.7864 8.98462 13.8771 9.04503C13.9677 9.10544 14.0733 9.13961 14.1821 9.14373C14.2618 9.14313 14.3404 9.125 14.4123 9.09062C14.548 9.02412 14.653 8.90809 14.7057 8.76644C14.7584 8.62479 14.7548 8.46832 14.6956 8.32928C13.7208 6.05359 11.9014 4.24472 9.62002 3.28327C9.47954 3.2334 9.32539 3.23854 9.18854 3.29766C9.05169 3.35678 8.94228 3.46548 8.8823 3.60195C8.82681 3.7439 8.82839 3.9018 8.88669 4.04261C8.945 4.18341 9.05551 4.29621 9.19509 4.35738Z" fill="#E4F7FF"/>
</svg>
