<svg width="380" height="276" viewBox="0 0 380 276" fill="none" xmlns="http://www.w3.org/2000/svg">
<g clipPath="url(#clip0_125_251)">
<path d="M161.957 255.3V123.573C161.957 112.487 152.928 103.5 141.791 103.5C130.654 103.5 121.625 112.487 121.625 123.573V255.3C121.625 266.386 130.654 275.373 141.791 275.373C152.928 275.373 161.957 266.386 161.957 255.3Z" fill="#0E41A2"/>
<path d="M146.202 275.373H236.948C248.086 275.373 257.114 266.386 257.114 255.3C257.114 244.214 248.086 235.227 236.948 235.227H146.202C135.065 235.227 126.036 244.214 126.036 255.3C126.036 266.386 135.065 275.373 146.202 275.373Z" fill="#0E41A2"/>
<path d="M42.7781 246.822L133.312 156.706C141.188 148.867 141.188 136.157 133.312 128.318C125.437 120.48 112.669 120.48 104.794 128.318L14.2593 218.435C6.38405 226.274 6.38405 238.983 14.2593 246.822C22.1345 254.661 34.9029 254.661 42.7781 246.822Z" fill="#0E41A2"/>
<path d="M259.635 0H141.791C130.654 0 121.625 8.98687 121.625 20.0727C121.625 31.1586 130.654 40.1455 141.791 40.1455H259.635C270.772 40.1455 279.801 31.1586 279.801 20.0727C279.801 8.98687 270.772 0 259.635 0Z" fill="#2ABDFB"/>
<path d="M141.791 103.5H28.9886C17.8513 103.5 8.82275 112.487 8.82275 123.573C8.82275 134.659 17.8513 143.645 28.9886 143.645H141.791C152.929 143.645 161.957 134.659 161.957 123.573C161.957 112.487 152.929 103.5 141.791 103.5Z" fill="#2ABDFB"/>
<path d="M161.957 123.573V20.0727C161.957 8.98687 152.928 0 141.791 0C130.654 0 121.625 8.98687 121.625 20.0727V123.573C121.625 134.659 130.654 143.645 141.791 143.645C152.928 143.645 161.957 134.659 161.957 123.573Z" fill="#2ABDFB"/>
<path fillRule="evenodd" clipRule="evenodd" d="M229.386 76.4865H266.597H294.947C341.92 76.4865 380 114.39 380 161.146V191.13C380 237.886 341.92 275.79 294.947 275.79H266.597H229.386V76.4865ZM294.877 235.216H269.527V118.221H294.877C319.342 118.221 339.175 137.962 339.175 162.314V191.122C339.175 215.474 319.342 235.216 294.877 235.216Z" fill="#2ABDFB"/>
</g>
<defs>
<clipPath id="clip0_125_251">
<rect width="380" height="276" fill="white"/>
</clipPath>
</defs>
</svg>
