<svg width="264" height="73" viewBox="0 0 264 73" fill="none" xmlns="http://www.w3.org/2000/svg">
<rect x="8" y="12" width="256" height="61" fill="#019CDE"/>
<rect y="4" width="256" height="61" fill="#2ABDFB"/>
<path d="M19.8203 47L8.92425 13.4H18.7163L27.8843 42.488H22.9403L32.5883 13.4H41.3243L50.4443 42.488H45.6923L55.1483 13.4H64.2203L53.3243 47H43.1483L35.3723 22.28H38.1083L29.9963 47H19.8203ZM76.3616 26.408H91.9616V33.512H76.3616V26.408ZM77.0336 39.656H94.6016V47H67.6256V13.4H93.9776V20.744H77.0336V39.656ZM109.812 47L124.644 13.4H134.004L148.884 47H138.996L127.38 18.056H131.124L119.508 47H109.812ZM117.924 40.472L120.372 33.464H136.788L139.236 40.472H117.924ZM151.579 47V13.4H166.939C170.011 13.4 172.651 13.896 174.859 14.888C177.099 15.88 178.827 17.32 180.043 19.208C181.259 21.064 181.867 23.272 181.867 25.832C181.867 28.36 181.259 30.552 180.043 32.408C178.827 34.232 177.099 35.64 174.859 36.632C172.651 37.592 170.011 38.072 166.939 38.072H156.859L161.083 34.088V47H151.579ZM172.363 47L164.011 34.76H174.139L182.539 47H172.363ZM161.083 35.096L156.859 30.728H166.363C168.347 30.728 169.819 30.296 170.779 29.432C171.771 28.568 172.267 27.368 172.267 25.832C172.267 24.264 171.771 23.048 170.779 22.184C169.819 21.32 168.347 20.888 166.363 20.888H156.859L161.083 16.52V35.096ZM195.846 26.408H211.446V33.512H195.846V26.408ZM196.518 39.656H214.086V47H187.11V13.4H213.462V20.744H196.518V39.656Z" fill="#00103E"/>
</svg>
