<svg width="27" height="27" viewBox="0 0 27 27" fill="none" xmlns="http://www.w3.org/2000/svg">
<path fill-rule="evenodd" clipRule="evenodd" d="M11.5322 20.1475C11.7201 20.4997 11.9083 20.8171 12.0882 21.0983C10.177 20.6686 8.51862 19.5708 7.37107 18.0631C8.12843 17.6366 9.09846 17.1945 10.2646 16.871C10.596 18.1709 11.0636 19.2689 11.5322 20.1475ZM12.9778 19.3765C12.5707 18.6134 12.1628 17.6603 11.8689 16.5311C12.5016 16.4372 13.177 16.383 13.8934 16.383C14.6096 16.383 15.2851 16.4372 15.9177 16.531C15.6237 17.6603 15.2158 18.6134 14.8087 19.3765C14.4824 19.9885 14.1572 20.477 13.8933 20.8345C13.6293 20.477 13.3041 19.9885 12.9778 19.3765ZM11.4358 13.1064C11.4358 13.7444 11.4787 14.3499 11.5544 14.9215C12.2843 14.8096 13.0647 14.7447 13.8934 14.7447C14.7219 14.7447 15.5023 14.8095 16.2321 14.9215C16.3078 14.3498 16.3507 13.7444 16.3507 13.1064C16.3507 12.4684 16.3078 11.863 16.2321 11.2913C15.5023 11.4032 14.7219 11.4681 13.8934 11.4681C13.0647 11.4681 12.2843 11.4032 11.5544 11.2913C11.4787 11.8629 11.4358 12.4684 11.4358 13.1064ZM9.94702 10.9535C9.85188 11.6295 9.79752 12.3478 9.79752 13.1064C9.79752 13.865 9.85188 14.5833 9.94702 15.2593C8.5561 15.6328 7.40432 16.1593 6.51354 16.666C5.99337 15.5896 5.70177 14.3821 5.70177 13.1064C5.70177 11.8307 5.99337 10.6232 6.51353 9.54679C7.40421 10.0534 8.55602 10.58 9.94702 10.9535ZM11.8689 9.68176C12.5016 9.77565 13.177 9.8298 13.8934 9.8298C14.6096 9.8298 15.2851 9.77566 15.9177 9.68178C15.6237 8.55253 15.2158 7.59946 14.8087 6.83631C14.4824 6.22439 14.1572 5.73576 13.8933 5.37835C13.6293 5.73576 13.3041 6.22439 12.9778 6.83628C12.5707 7.59944 12.1628 8.55251 11.8689 9.68176ZM17.8395 10.9536C17.9346 11.6296 17.989 12.3479 17.989 13.1064C17.989 13.865 17.9346 14.5832 17.8395 15.2592C19.2304 15.6328 20.3822 16.1593 21.273 16.666C21.7931 15.5895 22.0848 14.382 22.0848 13.1064C22.0848 11.8308 21.7931 10.6233 21.273 9.54685C20.3823 10.0535 19.2305 10.58 17.8395 10.9536ZM20.4154 8.14976C19.658 8.5763 18.688 9.01835 17.522 9.3419C17.1905 8.04192 16.7229 6.94388 16.2544 6.06534C16.0664 5.71306 15.8782 5.39575 15.6983 5.11445C17.6096 5.54427 19.268 6.64207 20.4154 8.14976ZM10.2646 9.34186C9.09852 9.01831 8.12853 8.57625 7.37108 8.14971C8.51862 6.64205 10.177 5.54427 12.0881 5.11445C11.9083 5.39575 11.7201 5.71304 11.5322 6.06532C11.0636 6.94385 10.596 8.04188 10.2646 9.34186ZM17.522 16.8709C17.1905 18.1709 16.7229 19.2689 16.2544 20.1475C16.0664 20.4997 15.8782 20.8171 15.6983 21.0983C17.6096 20.6686 19.268 19.5707 20.4155 18.063C19.6581 17.6365 18.6881 17.1945 17.522 16.8709ZM13.8933 22.9362C19.3221 22.9362 23.7231 18.5353 23.7231 13.1064C23.7231 7.67756 19.3221 3.27661 13.8933 3.27661C8.46443 3.27661 4.06348 7.67756 4.06348 13.1064C4.06348 18.5353 8.46443 22.9362 13.8933 22.9362Z" fill="#F0FDFF"/>
</svg>
