<svg width="253" height="75" viewBox="0 0 253 75" fill="none" xmlns="http://www.w3.org/2000/svg">
<rect y="13" width="243" height="62" fill="#019CDE"/>
<rect x="10" y="4" width="243" height="63" fill="#2ABDFB"/>
<path d="M72.0859 47L61.1899 13.4H70.9819L80.1499 42.488H75.2059L84.8539 13.4H93.5899L102.71 42.488H97.9579L107.414 13.4H116.486L105.59 47H95.4139L87.6379 22.28H90.3739L82.2619 47H72.0859ZM128.627 26.408H144.227V33.512H128.627V26.408ZM129.299 39.656H146.867V47H119.891V13.4H146.243V20.744H129.299V39.656ZM166.11 47V13.4H181.998C185.71 13.4 188.974 14.088 191.79 15.464C194.606 16.84 196.798 18.776 198.366 21.272C199.966 23.768 200.766 26.744 200.766 30.2C200.766 33.624 199.966 36.6 198.366 39.128C196.798 41.624 194.606 43.56 191.79 44.936C188.974 46.312 185.71 47 181.998 47H166.11ZM175.614 39.416H181.614C183.534 39.416 185.198 39.064 186.606 38.36C188.046 37.624 189.166 36.568 189.966 35.192C190.766 33.784 191.166 32.12 191.166 30.2C191.166 28.248 190.766 26.584 189.966 25.208C189.166 23.832 188.046 22.792 186.606 22.088C185.198 21.352 183.534 20.984 181.614 20.984H175.614V39.416ZM222.71 47.672C220.022 47.672 217.542 47.24 215.27 46.376C212.998 45.512 211.014 44.296 209.318 42.728C207.654 41.128 206.358 39.272 205.43 37.16C204.502 35.048 204.038 32.728 204.038 30.2C204.038 27.672 204.502 25.352 205.43 23.24C206.358 21.128 207.654 19.288 209.318 17.72C211.014 16.12 212.998 14.888 215.27 14.024C217.542 13.16 220.022 12.728 222.71 12.728C225.43 12.728 227.91 13.16 230.15 14.024C232.422 14.888 234.39 16.12 236.054 17.72C237.718 19.288 239.014 21.128 239.942 23.24C240.902 25.352 241.382 27.672 241.382 30.2C241.382 32.728 240.902 35.064 239.942 37.208C239.014 39.32 237.718 41.16 236.054 42.728C234.39 44.296 232.422 45.512 230.15 46.376C227.91 47.24 225.43 47.672 222.71 47.672ZM222.71 39.8C223.99 39.8 225.174 39.576 226.262 39.128C227.382 38.68 228.342 38.04 229.142 37.208C229.974 36.344 230.614 35.32 231.062 34.136C231.542 32.952 231.782 31.64 231.782 30.2C231.782 28.728 231.542 27.416 231.062 26.264C230.614 25.08 229.974 24.072 229.142 23.24C228.342 22.376 227.382 21.72 226.262 21.272C225.174 20.824 223.99 20.6 222.71 20.6C221.43 20.6 220.23 20.824 219.11 21.272C218.022 21.72 217.062 22.376 216.23 23.24C215.43 24.072 214.79 25.08 214.31 26.264C213.862 27.416 213.638 28.728 213.638 30.2C213.638 31.64 213.862 32.952 214.31 34.136C214.79 35.32 215.43 36.344 216.23 37.208C217.062 38.04 218.022 38.68 219.11 39.128C220.23 39.576 221.43 39.8 222.71 39.8Z" fill="#00103E"/>
</svg>
